<mxfile host="app.diagrams.net" modified="2023-03-22T14:03:19.578Z" agent="5.0 (Windows NT 10.0; Win64; x64) AppleWebKit/537.36 (KHTML, like Gecko) Chrome/111.0.0.0 Safari/537.36" etag="CKiIjuPIfdIvgWWoBJN8" version="21.0.10" type="github">
  <diagram name="Página-1" id="DhTL9vl_Z1rVRv2zVukJ">
    <mxGraphModel dx="1050" dy="541" grid="1" gridSize="10" guides="1" tooltips="1" connect="1" arrows="1" fold="1" page="1" pageScale="1" pageWidth="827" pageHeight="1169" math="0" shadow="0">
      <root>
        <mxCell id="0" />
        <mxCell id="1" parent="0" />
        <mxCell id="yfWvRmUjKEZi-DpIV9Eb-1" value="Reserva do Quarto" style="ellipse;whiteSpace=wrap;html=1;" vertex="1" parent="1">
          <mxGeometry x="320" y="40" width="120" height="80" as="geometry" />
        </mxCell>
        <mxCell id="yfWvRmUjKEZi-DpIV9Eb-2" value="Alugar Quarto" style="ellipse;whiteSpace=wrap;html=1;" vertex="1" parent="1">
          <mxGeometry x="320" y="180" width="120" height="80" as="geometry" />
        </mxCell>
        <mxCell id="yfWvRmUjKEZi-DpIV9Eb-3" value="Cliente" style="shape=umlActor;verticalLabelPosition=bottom;verticalAlign=top;html=1;outlineConnect=0;" vertex="1" parent="1">
          <mxGeometry x="70" y="230" width="30" height="60" as="geometry" />
        </mxCell>
        <mxCell id="yfWvRmUjKEZi-DpIV9Eb-4" value="Gerênciar Cadastro" style="ellipse;whiteSpace=wrap;html=1;" vertex="1" parent="1">
          <mxGeometry x="540" y="100" width="120" height="80" as="geometry" />
        </mxCell>
        <mxCell id="yfWvRmUjKEZi-DpIV9Eb-6" value="Funcionário" style="shape=umlActor;verticalLabelPosition=bottom;verticalAlign=top;html=1;outlineConnect=0;" vertex="1" parent="1">
          <mxGeometry x="620" y="280" width="30" height="60" as="geometry" />
        </mxCell>
        <mxCell id="yfWvRmUjKEZi-DpIV9Eb-16" value="&amp;lt;&amp;lt;extends&amp;gt;&amp;gt;" style="endArrow=open;endSize=12;dashed=1;html=1;rounded=0;exitX=0;exitY=1;exitDx=0;exitDy=0;entryX=1;entryY=0.5;entryDx=0;entryDy=0;" edge="1" parent="1" source="yfWvRmUjKEZi-DpIV9Eb-4" target="yfWvRmUjKEZi-DpIV9Eb-2">
          <mxGeometry width="160" relative="1" as="geometry">
            <mxPoint x="414" y="260" as="sourcePoint" />
            <mxPoint x="574" y="260" as="targetPoint" />
          </mxGeometry>
        </mxCell>
        <mxCell id="yfWvRmUjKEZi-DpIV9Eb-17" value="&amp;lt;&amp;lt;extends&amp;gt;&amp;gt;" style="endArrow=open;endSize=12;dashed=1;html=1;rounded=0;exitX=0.044;exitY=0.335;exitDx=0;exitDy=0;entryX=0.996;entryY=0.732;entryDx=0;entryDy=0;exitPerimeter=0;entryPerimeter=0;" edge="1" parent="1" source="yfWvRmUjKEZi-DpIV9Eb-4" target="yfWvRmUjKEZi-DpIV9Eb-1">
          <mxGeometry width="160" relative="1" as="geometry">
            <mxPoint x="500" y="120" as="sourcePoint" />
            <mxPoint x="372" y="162" as="targetPoint" />
          </mxGeometry>
        </mxCell>
        <mxCell id="yfWvRmUjKEZi-DpIV9Eb-18" value="" style="endArrow=none;html=1;edgeStyle=orthogonalEdgeStyle;rounded=0;entryX=0;entryY=0.5;entryDx=0;entryDy=0;" edge="1" parent="1" target="yfWvRmUjKEZi-DpIV9Eb-1">
          <mxGeometry relative="1" as="geometry">
            <mxPoint x="100" y="259.40999999999997" as="sourcePoint" />
            <mxPoint x="260" y="259.40999999999997" as="targetPoint" />
            <Array as="points">
              <mxPoint x="190" y="259" />
              <mxPoint x="190" y="80" />
            </Array>
          </mxGeometry>
        </mxCell>
        <mxCell id="yfWvRmUjKEZi-DpIV9Eb-21" value="" style="endArrow=none;html=1;edgeStyle=orthogonalEdgeStyle;rounded=0;entryX=0;entryY=0.5;entryDx=0;entryDy=0;" edge="1" parent="1" target="yfWvRmUjKEZi-DpIV9Eb-2">
          <mxGeometry relative="1" as="geometry">
            <mxPoint x="110" y="259.40999999999997" as="sourcePoint" />
            <mxPoint x="270" y="259.40999999999997" as="targetPoint" />
            <Array as="points">
              <mxPoint x="190" y="259" />
              <mxPoint x="190" y="220" />
            </Array>
          </mxGeometry>
        </mxCell>
        <mxCell id="yfWvRmUjKEZi-DpIV9Eb-22" value="Pedir Serviço" style="ellipse;whiteSpace=wrap;html=1;" vertex="1" parent="1">
          <mxGeometry x="320" y="330" width="120" height="80" as="geometry" />
        </mxCell>
        <mxCell id="yfWvRmUjKEZi-DpIV9Eb-23" value="" style="endArrow=none;html=1;edgeStyle=orthogonalEdgeStyle;rounded=0;exitX=1;exitY=0.5;exitDx=0;exitDy=0;" edge="1" parent="1" source="yfWvRmUjKEZi-DpIV9Eb-22">
          <mxGeometry relative="1" as="geometry">
            <mxPoint x="460" y="370" as="sourcePoint" />
            <mxPoint x="630" y="310" as="targetPoint" />
            <Array as="points">
              <mxPoint x="540" y="369" />
              <mxPoint x="540" y="310" />
            </Array>
          </mxGeometry>
        </mxCell>
        <mxCell id="yfWvRmUjKEZi-DpIV9Eb-24" value="" style="endArrow=none;html=1;edgeStyle=orthogonalEdgeStyle;rounded=0;entryX=0;entryY=0.5;entryDx=0;entryDy=0;" edge="1" parent="1" source="yfWvRmUjKEZi-DpIV9Eb-3" target="yfWvRmUjKEZi-DpIV9Eb-22">
          <mxGeometry relative="1" as="geometry">
            <mxPoint x="134" y="369.40999999999997" as="sourcePoint" />
            <mxPoint x="294" y="369" as="targetPoint" />
            <Array as="points">
              <mxPoint x="270" y="260" />
              <mxPoint x="270" y="369" />
              <mxPoint x="320" y="369" />
            </Array>
          </mxGeometry>
        </mxCell>
        <mxCell id="yfWvRmUjKEZi-DpIV9Eb-25" value="Quitar Diárias" style="ellipse;whiteSpace=wrap;html=1;" vertex="1" parent="1">
          <mxGeometry x="320" y="490" width="120" height="80" as="geometry" />
        </mxCell>
        <mxCell id="yfWvRmUjKEZi-DpIV9Eb-26" value="" style="endArrow=none;html=1;edgeStyle=orthogonalEdgeStyle;rounded=0;" edge="1" parent="1">
          <mxGeometry relative="1" as="geometry">
            <mxPoint x="100" y="260" as="sourcePoint" />
            <mxPoint x="320" y="530" as="targetPoint" />
            <Array as="points">
              <mxPoint x="190" y="260" />
              <mxPoint x="190" y="530" />
            </Array>
          </mxGeometry>
        </mxCell>
        <mxCell id="yfWvRmUjKEZi-DpIV9Eb-27" value="Fechar Estadia" style="ellipse;whiteSpace=wrap;html=1;" vertex="1" parent="1">
          <mxGeometry x="230" y="670" width="120" height="80" as="geometry" />
        </mxCell>
        <mxCell id="yfWvRmUjKEZi-DpIV9Eb-28" value="" style="endArrow=none;html=1;edgeStyle=orthogonalEdgeStyle;rounded=0;entryX=0;entryY=0.5;entryDx=0;entryDy=0;" edge="1" parent="1" target="yfWvRmUjKEZi-DpIV9Eb-27">
          <mxGeometry relative="1" as="geometry">
            <mxPoint x="100" y="260" as="sourcePoint" />
            <mxPoint x="220" y="710" as="targetPoint" />
            <Array as="points">
              <mxPoint x="190" y="260" />
              <mxPoint x="190" y="709" />
            </Array>
          </mxGeometry>
        </mxCell>
        <mxCell id="yfWvRmUjKEZi-DpIV9Eb-31" value="Quitar Serviço" style="ellipse;whiteSpace=wrap;html=1;" vertex="1" parent="1">
          <mxGeometry x="510" y="590" width="120" height="80" as="geometry" />
        </mxCell>
        <mxCell id="yfWvRmUjKEZi-DpIV9Eb-32" value="Quitar Consumo" style="ellipse;whiteSpace=wrap;html=1;" vertex="1" parent="1">
          <mxGeometry x="390" y="670" width="120" height="80" as="geometry" />
        </mxCell>
        <mxCell id="yfWvRmUjKEZi-DpIV9Eb-33" value="&amp;lt;&amp;lt;extends&amp;gt;&amp;gt;" style="endArrow=open;endSize=12;dashed=1;html=1;rounded=0;exitX=0.242;exitY=0.057;exitDx=0;exitDy=0;exitPerimeter=0;entryX=0.673;entryY=1.018;entryDx=0;entryDy=0;entryPerimeter=0;" edge="1" parent="1" source="yfWvRmUjKEZi-DpIV9Eb-32" target="yfWvRmUjKEZi-DpIV9Eb-25">
          <mxGeometry width="160" relative="1" as="geometry">
            <mxPoint x="320" y="650" as="sourcePoint" />
            <mxPoint x="480" y="650" as="targetPoint" />
          </mxGeometry>
        </mxCell>
        <mxCell id="yfWvRmUjKEZi-DpIV9Eb-35" value="&amp;lt;&amp;lt;extends&amp;gt;&amp;gt;" style="endArrow=open;endSize=12;dashed=1;html=1;rounded=0;exitX=0;exitY=0;exitDx=0;exitDy=0;entryX=0.987;entryY=0.747;entryDx=0;entryDy=0;entryPerimeter=0;" edge="1" parent="1" source="yfWvRmUjKEZi-DpIV9Eb-31" target="yfWvRmUjKEZi-DpIV9Eb-25">
          <mxGeometry width="160" relative="1" as="geometry">
            <mxPoint x="540" y="589" as="sourcePoint" />
            <mxPoint x="512" y="500" as="targetPoint" />
          </mxGeometry>
        </mxCell>
        <mxCell id="yfWvRmUjKEZi-DpIV9Eb-36" value="&amp;lt;&amp;lt;include&amp;gt;&amp;gt;" style="endArrow=open;endSize=12;dashed=1;html=1;rounded=0;exitX=0.5;exitY=0;exitDx=0;exitDy=0;entryX=0.242;entryY=0.971;entryDx=0;entryDy=0;entryPerimeter=0;" edge="1" parent="1" source="yfWvRmUjKEZi-DpIV9Eb-27" target="yfWvRmUjKEZi-DpIV9Eb-25">
          <mxGeometry width="160" relative="1" as="geometry">
            <mxPoint x="320" y="674" as="sourcePoint" />
            <mxPoint x="292" y="585" as="targetPoint" />
          </mxGeometry>
        </mxCell>
        <mxCell id="yfWvRmUjKEZi-DpIV9Eb-38" value="" style="endArrow=none;html=1;edgeStyle=orthogonalEdgeStyle;rounded=0;exitX=1;exitY=0.5;exitDx=0;exitDy=0;" edge="1" parent="1" source="yfWvRmUjKEZi-DpIV9Eb-25" target="yfWvRmUjKEZi-DpIV9Eb-6">
          <mxGeometry relative="1" as="geometry">
            <mxPoint x="490" y="520" as="sourcePoint" />
            <mxPoint x="650" y="520" as="targetPoint" />
          </mxGeometry>
        </mxCell>
        <mxCell id="yfWvRmUjKEZi-DpIV9Eb-41" value="" style="endArrow=none;html=1;edgeStyle=orthogonalEdgeStyle;rounded=0;exitX=0.623;exitY=0.993;exitDx=0;exitDy=0;exitPerimeter=0;entryX=0.5;entryY=0;entryDx=0;entryDy=0;entryPerimeter=0;" edge="1" parent="1" source="yfWvRmUjKEZi-DpIV9Eb-4" target="yfWvRmUjKEZi-DpIV9Eb-6">
          <mxGeometry relative="1" as="geometry">
            <mxPoint x="640" y="250" as="sourcePoint" />
            <mxPoint x="800" y="250" as="targetPoint" />
          </mxGeometry>
        </mxCell>
      </root>
    </mxGraphModel>
  </diagram>
</mxfile>
